#!OML:ASF F:\VICON\USERDATA\INSTALL\rory3\rory3.ASF
:FULLY-SPECIFIED
:DEGREES
182
root 1.97325 18.9017 -4.30326 -3.65706 -8.59663 2.0209
lowerback 5.18129 1.33644 -3.46252
upperback 0.888066 1.55822 -1.25028
thorax -2.04762 0.795627 0.54792
lowerneck -9.41818 -3.04992 -6.17064
upperneck 26.0485 -5.23398 7.91571
head 10.1929 -2.17674 3.25332
rclavicle 3.54955e-014 -1.43125e-014
rhumerus -22.91 33.1982 -92.7828
rradius 87.2171
rwrist -12.6622
rhand -41.6031 9.71888
rfingers 7.12502
rthumb -14.5128 -19.7535
lclavicle 3.54955e-014 -1.43125e-014
lhumerus -20.8831 -37.4515 95.1614
lradius 95.1502
lwrist 12.3629
lhand -36.6955 40.9628
lfingers 7.12502
lthumb -9.78083 70.7157
rfemur 4.80941 19.2591 16.8594
rtibia 13.2148
rfoot -13.3733 -22.2958
rtoes -7.05164
lfemur 0 0 0
ltibia 0
lfoot 0 0
ltoes 0
183
root 1.9763 18.9019 -4.30279 -3.64759 -8.60754 2.05452
lowerback 5.16839 1.34966 -3.48124
upperback 0.879761 1.57509 -1.25321
thorax -2.04999 0.804263 0.554343
lowerneck -9.40876 -3.04152 -6.15428
upperneck 26.0485 -5.22397 7.90984
head 10.1896 -2.17128 3.24968
rclavicle -4.98018e-014 -1.19271e-015
rhumerus -22.9202 33.1553 -92.7348
rradius 87.2038
rwrist -12.6037
rhand -41.6135 9.98371
rfingers 7.12502
rthumb -14.5228 -19.488
lclavicle -4.98018e-014 -1.19271e-015
lhumerus -20.9493 -37.3482 95.1796
lradius 95.1673
lwrist 11.0015
lhand -36.6075 41.3752
lfingers 7.12502
lthumb -9.69593 71.1321
rfemur 4.81456 19.2758 16.8098
rtibia 13.1838
rfoot -13.3494 -22.309
rtoes -7.15332
lfemur 0 0 0
ltibia 0
lfoot 0 0
ltoes 0
184
root 1.97896 18.902 -4.29987 -3.6046 -8.61652 2.04555
lowerback 5.08395 1.35132 -3.45667
upperback 0.888773 1.58317 -1.24624
thorax -1.99331 0.807377 0.549423
lowerneck -9.42232 -3.0254 -6.14203
upperneck 26.0449 -5.2019 7.90839
head 10.1887 -2.15967 3.2495
rclavicle 1.93194e-015 0
rhumerus -22.929 33.1352 -92.6902
rradius 87.2479
rwrist -12.5758
rhand -41.4902 9.91199
rfingers 7.12502
rthumb -14.404 -19.5682
lclavicle 1.93194e-015 0
lhumerus -20.9845 -37.2471 95.1509
lradius 95.1852
lwrist 9.71696
lhand -36.7167 41.627
lfingers 7.12502
lthumb -9.8013 71.3789
rfemur 4.79148 19.2805 16.7968
rtibia 13.1654
rfoot -13.3472 -22.3171
rtoes -7.20217
lfemur 0 0 0
ltibia 0
lfoot 0 0
ltoes 0
185
root 1.98044 18.9016 -4.30034 -3.57763 -8.63277 1.99318
lowerback 5.06664 1.35288 -3.39931
upperback 0.893931 1.58977 -1.22746
thorax -1.97754 0.81013 0.536727
lowerneck -9.41117 -3.025 -6.12169
upperneck 26.0127 -5.19488 7.87602
head 10.1728 -2.1584 3.23455
rclavicle -2.60594e-014 2.06736e-014
rhumerus -22.9177 33.1355 -92.6351
rradius 87.3454
rwrist -12.7828
rhand -41.1561 9.63859
rfingers 7.12502
rthumb -14.0821 -19.8643
lclavicle -2.60594e-014 2.06736e-014
lhumerus -21.0228 -37.1534 95.1063
lradius 95.2247
lwrist 8.42828
lhand -36.5366 41.6974
lfingers 7.12502
lthumb -9.62751 71.4574
rfemur 4.7615 19.2985 16.8419
rtibia 13.1826
rfoot -13.3748 -22.3129
rtoes -7.1508
lfemur 0 0 0
ltibia 0
lfoot 0 0
ltoes 0
186
root 1.98162 18.901 -4.30386 -3.58301 -8.6216 2.0026
lowerback 5.14876 1.35601 -3.41391
upperback 0.864897 1.58857 -1.22059
thorax -2.05391 0.810863 0.549541
lowerneck -9.38352 -3.02782 -6.1129
upperneck 26.0224 -5.19582 7.85031
head 10.1701 -2.16132 3.22411
rclavicle -1.94312e-014 -7.55382e-015
rhumerus -22.9827 33.1542 -92.5913
rradius 87.4603
rwrist -13.0274
rhand -40.8963 9.37937
rfingers 7.12502
rthumb -13.8317 -20.1407
lclavicle -1.94312e-014 -7.55382e-015
lhumerus -21.108 -37.0451 95.0808
lradius 95.2839
lwrist 7.21298
lhand -36.0207 41.5786
lfingers 7.12502
lthumb -9.12979 71.361
rfemur 4.74973 19.3185 16.8291
rtibia 13.2038
rfoot -13.4184 -22.3202
rtoes -7.03393
lfemur 0 0 0
ltibia 0
lfoot 0 0
ltoes 0
187
root 1.98429 18.9013 -4.30571 -3.56787 -8.58759 2.08368
lowerback 5.1605 1.34624 -3.48243
upperback 0.846581 1.57044 -1.23043
thorax -2.08026 0.80276 0.578414
lowerneck -9.39869 -3.03812 -6.13504
upperneck 26.0614 -5.20248 7.82908
head 10.1879 -2.16819 3.22019
rclavicle 2.86374e-015 7.95139e-016
rhumerus -23.0596 33.2006 -92.5486
rradius 87.559
rwrist -13.1064
rhand -40.8392 9.44525
rfingers 7.12502
rthumb -13.7767 -20.0786
lclavicle 2.86374e-015 7.95139e-016
lhumerus -21.1642 -36.9779 95.0418
lradius 95.3884
lwrist 6.15819
lhand -35.6014 41.2338
lfingers 7.12502
lthumb -8.72515 71.0335
rfemur 4.71931 19.3047 16.7179
rtibia 13.1962
rfoot -13.4591 -22.3262
rtoes -6.8603
lfemur 0 0 0
ltibia 0
lfoot 0 0
ltoes 0
188
root 1.98692 18.9017 -4.30639 -3.54324 -8.56393 2.12306
lowerback 5.10923 1.32997 -3.4915
upperback 0.868634 1.55119 -1.23999
thorax -2.02814 0.792321 0.57661
lowerneck -9.41822 -3.05213 -6.14821
upperneck 26.0417 -5.20719 7.79081
head 10.1844 -2.17547 3.2075
rclavicle -1.70644e-014 -3.18055e-015
rhumerus -23.0429 33.2412 -92.4941
rradius 87.6296
rwrist -13.0717
rhand -40.7652 9.49383
rfingers 7.12502
rthumb -13.7053 -20.0349
lclavicle -1.70644e-014 -3.18055e-015
lhumerus -21.175 -36.9664 94.9576
lradius 95.5672
lwrist 5.1572
lhand -35.2068 40.8357
lfingers 7.12502
lthumb -8.34432 70.6509
rfemur 4.69649 19.2681 16.6528
rtibia 13.1733
rfoot -13.459 -22.3242
rtoes -6.82596
lfemur 0 0 0
ltibia 0
lfoot 0 0
ltoes 0
189
root 1.98843 18.9023 -4.30674 -3.54005 -8.55135 2.04341
lowerback 5.12362 1.31111 -3.37283
upperback 0.883629 1.5325 -1.23417
thorax -2.01713 0.781983 0.517513
lowerneck -9.54643 -3.02865 -6.20063
upperneck 26.2041 -5.20688 7.93314
head 10.2739 -2.16091 3.27038
rclavicle -3.27373e-015 9.54166e-015
rhumerus -23.0279 33.2761 -92.4664
rradius 87.6993
rwrist -13.0068
rhand -40.5731 9.20381
rfingers 7.12502
rthumb -13.5202 -20.3373
lclavicle -3.27373e-015 9.54166e-015
lhumerus -21.194 -36.9229 94.8184
lradius 95.7662
lwrist 4.12346
lhand -34.538 40.431
lfingers 7.12502
lthumb -7.69884 70.2708
rfemur 4.71409 19.2523 16.7419
rtibia 13.1699
rfoot -13.4659 -22.322
rtoes -6.83092
lfemur 0 0 0
ltibia 0
lfoot 0 0
ltoes 0
190
root 1.99044 18.904 -4.30718 -3.52345 -8.52908 1.96137
lowerback 5.14735 1.28925 -3.25181
upperback 0.876154 1.50903 -1.22359
thorax -2.03448 0.769838 0.461749
lowerneck -9.68773 -2.99038 -6.27488
upperneck 26.4274 -5.20077 8.13304
head 10.3904 -2.13871 3.36046
rclavicle 2.68359e-014 -2.38542e-014
rhumerus -23.0395 33.325 -92.4387
rradius 87.784
rwrist -12.9629
rhand -40.4536 9.17686
rfingers 7.12502
rthumb -13.405 -20.3719
lclavicle 2.68359e-014 -2.38542e-014
lhumerus -21.1851 -36.8624 94.6497
lradius 95.9449
lwrist 3.12633
lhand -33.7355 39.8437
lfingers 7.12502
lthumb -6.92421 69.7105
rfemur 4.69181 19.254 16.8276
rtibia 13.2038
rfoot -13.4963 -22.3355
rtoes -6.82123
lfemur 0 0 0
ltibia 0
lfoot 0 0
ltoes 0
191
root 1.99187 18.9046 -4.30939 -3.47664 -8.50488 2.01858
lowerback 5.11145 1.27992 -3.29934
upperback 0.870898 1.49518 -1.23747
thorax -2.0202 0.763084 0.475772
lowerneck -9.57762 -3.00269 -6.21316
upperneck 26.2765 -5.19215 8.01091
head 10.3076 -2.14568 3.30387
rclavicle 6.1499e-015 -1.59028e-014
rhumerus -23.0096 33.3885 -92.3839
rradius 87.8779
rwrist -12.9093
rhand -40.5424 9.42494
rfingers 7.12502
rthumb -13.4906 -20.1181
lclavicle 6.1499e-015 -1.59028e-014
lhumerus -21.1557 -36.7818 94.493
lradius 96.1215
lwrist 2.32533
lhand -32.8796 38.7174
lfingers 7.12502
lthumb -6.09797 68.6096
rfemur 4.62354 19.2186 16.7307
rtibia 13.1874
rfoot -13.4496 -22.3298
rtoes -6.93576
lfemur 0 0 0
ltibia 0
lfoot 0 0
ltoes 0
192
root 1.99255 18.9045 -4.31455 -3.41806 -8.47778 2.18988
lowerback 5.06213 1.28337 -3.47297
upperback 0.859901 1.49117 -1.28547
thorax -2.00694 0.761987 0.524704
lowerneck -9.5782 -3.0008 -6.22184
upperneck 26.2571 -5.19231 8.03424
head 10.3015 -2.14411 3.31339
rclavicle 1.67725e-016 -9.93923e-015
rhumerus -22.9939 33.4667 -92.3348
rradius 88.0248
rwrist -12.8308
rhand -40.5558 9.38786
rfingers 7.12502
rthumb -13.5035 -20.1543
lclavicle 1.67725e-016 -9.93923e-015
lhumerus -21.1155 -36.6444 94.3038
lradius 96.329
lwrist 1.78072
lhand -31.6028 37.3155
lfingers 7.12502
lthumb -4.86519 67.2397
rfemur 4.50923 19.1474 16.4864
rtibia 13.1843
rfoot -13.3985 -22.2801
rtoes -7.02987
lfemur 0 0 0
ltibia 0
lfoot 0 0
ltoes 0
193
root 1.99284 18.9041 -4.31919 -3.53121 -8.53213 2.05739
lowerback 5.2356 1.30608 -3.31725
upperback 0.90469 1.5237 -1.25802
thorax -2.05567 0.777398 0.460236
lowerneck -9.71566 -2.97307 -6.29495
upperneck 26.4172 -5.19201 8.21672
head 10.3941 -2.12673 3.39504
rclavicle 1.45982e-015 3.18055e-015
rhumerus -23.007 33.5176 -92.2777
rradius 88.1793
rwrist -12.7832
rhand -40.2959 9.17849
rfingers 7.12502
rthumb -13.253 -20.3802
lclavicle 1.45982e-015 3.18055e-015
lhumerus -21.0032 -36.5222 94.0212
lradius 96.5318
lwrist 1.45253
lhand -30.0802 36.0343
lfingers 7.12502
lthumb -3.39494 65.987
rfemur 4.62556 19.2515 16.6981
rtibia 13.1989
rfoot -13.3671 -22.3429
rtoes -7.04933
lfemur 0 0 0
ltibia 0
lfoot 0 0
ltoes 0
